<svg width="36" height="36" viewBox="0 0 36 36" fill="none" xmlns="http://www.w3.org/2000/svg">
<path d="M18 3.00006C9.72 3.00006 3 9.72006 3 18.0001C3 26.2801 9.72 33.0001 18 33.0001H25.5V30.0001H18C11.49 30.0001 6 24.5101 6 18.0001C6 11.4901 11.49 6.00006 18 6.00006C24.51 6.00006 30 11.4901 30 18.0001V20.1451C30 21.3301 28.935 22.5001 27.75 22.5001C26.565 22.5001 25.5 21.3301 25.5 20.1451V18.0001C25.5 13.8601 22.14 10.5001 18 10.5001C13.86 10.5001 10.5 13.8601 10.5 18.0001C10.5 22.1401 13.86 25.5001 18 25.5001C20.07 25.5001 21.96 24.6601 23.31 23.2951C24.285 24.6301 25.965 25.5001 27.75 25.5001C30.705 25.5001 33 23.1001 33 20.1451V18.0001C33 9.72006 26.28 3.00006 18 3.00006ZM18 22.5001C15.51 22.5001 13.5 20.4901 13.5 18.0001C13.5 15.5101 15.51 13.5001 18 13.5001C20.49 13.5001 22.5 15.5101 22.5 18.0001C22.5 20.4901 20.49 22.5001 18 22.5001Z" fill="#00BFA5"/>
</svg>
